<svg xmlns="http://www.w3.org/2000/svg" viewBox="0 0 48 48"><g class="nc-icon-wrapper"><path fill="#458BC4" d="M44.561 10.172a.997.997 0 0 0-.932-.101l-20 8c-.38.153-.629.52-.629.929v26a1.001 1.001 0 0 0 1.371.929l20-8c.38-.153.629-.52.629-.929V11c0-.332-.165-.642-.439-.828z"/><path fill="#43A6DD" d="M24 17.923L4.371 10.071A1.001 1.001 0 0 0 3 11v26c0 .409.249.776.629.929l20 8A.99.99 0 0 0 24 46V17.923z"/><path fill="#BADEFC" d="M44.371 10.071l-20-8a.992.992 0 0 0-.742 0l-20 8a1.002 1.002 0 0 0 0 1.858l20 8a.99.99 0 0 0 .742 0l20-8a1.002 1.002 0 0 0 0-1.858z"/></g></svg>